<?xml version="1.0" standalone="no"?>
<!DOCTYPE svg PUBLIC "-//W3C//DTD SVG 20010904//EN"
 "http://www.w3.org/TR/2001/REC-SVG-20010904/DTD/svg10.dtd">
<svg version="1.0" xmlns="http://www.w3.org/2000/svg"
 width="500.000000pt" height="500.000000pt" viewBox="0 0 500.000000 500.000000"
 preserveAspectRatio="xMidYMid meet">

<g transform="translate(0.000000,500.000000) scale(0.100000,-0.100000)"
fill="#000000" stroke="none">
<path d="M2831 2137 c-43 -17 -78 -57 -91 -108 -7 -26 -10 -131 -8 -292 3
-244 4 -253 26 -290 32 -50 68 -67 145 -67 75 0 118 23 149 80 17 32 18 57 16
312 -3 261 -4 278 -24 304 -11 15 -31 36 -45 46 -32 24 -123 32 -168 15z m137
-93 c22 -25 22 -30 22 -285 l0 -260 -25 -24 c-47 -48 -134 -26 -150 37 -3 13
-5 134 -3 270 3 223 5 248 22 266 34 39 97 37 134 -4z"/>
<path d="M3269 2141 c-47 -15 -76 -41 -95 -83 -17 -38 -19 -69 -19 -293 0
-274 4 -302 56 -351 26 -25 38 -29 102 -32 59 -2 78 1 105 18 49 30 72 89 72
183 l0 77 -34 0 -33 0 -5 -80 c-4 -67 -9 -84 -29 -106 -19 -21 -31 -24 -68
-22 -35 2 -48 9 -65 31 -20 27 -21 40 -21 276 0 274 3 292 60 311 74 25 125
-28 125 -130 l0 -50 36 0 36 0 -3 79 c-4 84 -18 114 -70 153 -28 21 -111 31
-150 19z"/>
<path d="M1520 1760 l0 -380 40 0 40 0 0 175 0 175 95 0 95 0 0 -175 0 -175
40 0 40 0 0 380 0 380 -40 0 -40 0 0 -170 0 -170 -95 0 -95 0 0 170 0 170 -40
0 -40 0 0 -380z"/>
<path d="M1960 1760 l0 -380 40 0 40 0 0 380 0 380 -40 0 -40 0 0 -380z"/>
<path d="M2300 1760 l0 -380 98 0 c120 1 166 11 202 45 46 44 52 86 48 360 -3
240 -4 252 -26 286 -33 54 -79 69 -212 69 l-110 0 0 -380z m241 280 l30 -29
-3 -255 c-3 -248 -4 -256 -25 -277 -18 -18 -34 -22 -90 -23 l-68 -1 -3 308 -2
307 66 0 c59 0 68 -3 95 -30z"/>
</g>
</svg>
